<svg width="152" height="41" viewBox="0 0 152 41" fill="none" xmlns="http://www.w3.org/2000/svg">
<path d="M46.231 0H43.2057V40.7154H46.231V0Z" fill="white"/>
<path d="M25.9754 19.4921H11.2504V22.2902H25.9754V19.4921Z" fill="white"/>
<path d="M0 0V40.7154H3.02535V2.79815H34.2715V0H0Z" fill="white"/>
<path d="M136.897 0.166039H112.883V40.8815H115.908V25.7051H115.932V22.9069H115.908V2.96419H136.684C143.987 2.96419 148.974 6.33145 148.974 12.7814V12.9C148.974 18.9468 143.869 22.9069 136.329 22.9069H126.828V25.7051H136.164C144.626 25.7051 152 21.2944 152 12.734V12.6154C151.953 4.74267 145.807 0.166039 136.897 0.166039Z" fill="white"/>
<path d="M95.3219 22.9069L81.2588 0H78.3516L53.298 41H56.4179L79.7461 3.31984L91.9184 22.9069H95.3219Z" fill="white"/>
<path d="M99.9546 30.4239H96.5983L103.145 40.9999H106.454L99.9546 30.4239Z" fill="white"/>
</svg>
